<svg id="Layer_1" xmlns="http://www.w3.org/2000/svg" viewBox="0 0 100 100"><style>.st0{fill:#fff}</style><path class="st0" d="M73 85.5H25c-.9 0-1.8 0-2.6-.1.3 0 .5.1.8.1l-1.2-.3c.2.1.5.2.7.3-.2-.1-.5-.2-.7-.4.2.2.4.3.6.5l-.4-.4c.2.2.3.4.5.6-.1-.1-.2-.3-.2-.4.1.2.2.5.3.7-.1-.2-.1-.4-.2-.6 0 .3.1.5.1.8v-1c0 .3-.1.5-.1.8.1-.6.3-1.1.5-1.7-.1.2-.2.5-.3.7.3-.6.7-1.1 1.1-1.7.8-1.2 1.6-2.4 2.3-3.6 1.4-2.1 2.7-4.3 4.1-6.4 2.2-3.4 4.4-6.8 6.5-10.2l4.8-7.5c.5-.8 1-1.5 1.4-2.3.4-.7.8-1.3.8-2.2V27.8l-3.1 3.1h15.2l-3.1-3.1v23.7c0 .9.3 1.5.7 2.1 2.9 4.6 5.8 9.1 8.7 13.7 1.8 2.9 3.7 5.8 5.5 8.6 1.3 2.1 2.7 4.2 4 6.2.5.8 1 1.5 1.4 2.3.3.4.6.9.8 1.3-.1-.2-.2-.5-.3-.7.2.5.3.9.4 1.4 0-.3-.1-.5-.1-.8v.9c0-.3.1-.5.1-.8 0 .2-.1.4-.2.6.1-.2.2-.5.3-.7-.1.1-.1.3-.2.4.2-.2.3-.4.5-.6-.1.2-.3.3-.4.4.2-.2.4-.3.6-.5-.2.1-.4.3-.6.4.2-.1.5-.2.7-.3-.4.2-.9.3-1.3.4.3 0 .5-.1.8-.1-.3-.2-.8-.2-1.2-.2-1.7 0-3.1 1.4-3.1 3.1s1.4 3.1 3.1 3.1c1.5 0 2.8-.3 4.2-.9.5-.2 1-.6 1.4-1 .7-.6 1-1.3 1.3-2.1.5-1.2.3-2.7-.1-3.9-.2-.7-.5-1.3-.8-1.9-1.3-2-2.6-4.1-3.9-6.1-1.9-3.1-3.9-6.1-5.8-9.2-3.1-4.9-6.2-9.8-9.3-14.6-.4-.7-.9-1.4-1.3-2 .1.5.3 1 .4 1.6V27.8c0-1.7-1.4-3.1-3.1-3.1H40.7c-1.7 0-3.1 1.4-3.1 3.1v23.8c.1-.5.3-1 .4-1.6l-7.2 11.4c-2 3.2-4.1 6.4-6.1 9.6-1.5 2.4-3 4.7-4.5 7.1l-2.1 3.3c-.6 1-1.2 2-1.4 3.2-.3 1.5-.2 3 .5 4.4.7 1.3 2 2.1 3.3 2.5 1 .4 2.2.4 3.3.4H73c1.7 0 3.1-1.4 3.1-3.1 0-1.9-1.4-3.3-3.1-3.3z"/><path class="st0" d="M37.1 30.9h22.4c1.7 0 3.1-1.4 3.1-3.1s-1.4-3.1-3.1-3.1H37.1c-1.7 0-3.1 1.4-3.1 3.1s1.4 3.1 3.1 3.1zm13.8 8.8h4.7c1.7 0 3.1-1.4 3.1-3.1 0-1.7-1.4-3.1-3.1-3.1h-4.7c-1.7 0-3.1 1.4-3.1 3.1 0 1.7 1.4 3.1 3.1 3.1zm0 8.5h4.7c1.7 0 3.1-1.4 3.1-3.1 0-1.7-1.4-3.1-3.1-3.1h-4.7c-1.7 0-3.1 1.4-3.1 3.1 0 1.7 1.4 3.1 3.1 3.1zM73 88.7H23.6c-3.5 0-5-1.6-3.4-5l7.5-11.8.3.1s4.7-6.2 12.9-.6 15.5 0 15.5 0 6.7-4.7 11.4-.6h.3l8.2 12.9c1.8 3.4.2 5-3.3 5z"/><path class="st0" d="M73 86.2H23.3c-.2 0-.5 0-.8-.1.9.1 0 0-.2-.1-.1 0-.2-.1-.3-.1-.4-.1.6.3.2.1-.2-.1-.3-.2-.5-.3.7.5.2.2.1 0 .5.6.3.4.2.2-.3-.4.2.5.1.2 0-.1 0-.2-.1-.2-.1-.4.1.7 0 .3v-.6c0-.4-.1.7 0 .2 0-.1.1-.2.1-.3l.3-.9c.2-.4-.2.4 0 .1.1-.1.1-.2.2-.3.6-.9 1.2-1.9 1.8-2.8l4.8-7.5c.2-.4.5-.8.8-1.2-.9.4-1.8.7-2.7 1.1.1 0 .2.1.3.1 1.1.4 2.1-.3 2.7-1.1-.8 1-.2.3 0 .1l.4-.4c.1-.1.2-.2.3-.2.1-.1.4-.3-.3.2l.2-.2c.2-.2.5-.3.8-.5.1-.1.3-.2.4-.2s.2-.1.2-.1c.5-.2-.5.2-.2.1s.7-.2 1.1-.3c.2 0 .4-.1.6-.1.2 0 .6-.1-.2 0h1.8c.2 0 .6.1-.2 0 .1 0 .2 0 .4.1.3.1.6.1.9.2.3.1.5.2.8.3.1.1.3.1.4.2-.6-.3-.1-.1 0 0 .7.3 1.3.7 1.9 1.1 1.4.9 2.8 1.7 4.3 2.2 1.3.5 2.8.7 4.2.8 2.1.1 4.4-.3 6.4-1.1 1.1-.4 2.3-1 3.3-1.7.6-.4 1.2-.8 1.9-1.1.2-.1.3-.2.5-.2-.8.4-.1.1.1 0 .4-.2.9-.3 1.4-.4.2-.1.4-.1.7-.2.1 0 .2 0 .3-.1.5-.1-.6.1-.2 0 .5-.1 1-.1 1.6 0h.2c.5 0-.6-.1-.1 0 .2 0 .4.1.6.1s.4.1.6.2l-.2-.1c.1.1.2.1.4.2l.6.3c.1.1.2.1.2.2.4.3-.4-.4 0 0 .6.5 1.3.9 2.1.8L66.4 72c2.6 4 5.1 8.1 7.7 12.1.2.2.3.5.5.7.1.1.2.3.2.5-.3-.7 0 .1.1.3 0 .1.1.2.1.3.1.6 0-.5 0-.1v.6c.1-.8.1-.5 0-.3l.1-.2c0 .1-.1.1-.1.2-.2.3.4-.5.2-.2l-.2.2c-.3.2.6-.4.1-.1-.1 0-.2.1-.2.1-.4.2.6-.2.2-.1-.2.1-.5.1-.7.2-.1 0-.2 0-.3.1.8-.1.3 0 .2 0-.7-.1-1-.1-1.3-.1-1.3 0-2.4 1.1-2.4 2.4S71.7 91 73 91s2.6-.2 3.8-.8c1.2-.5 1.9-1.5 2.4-2.7.7-1.6 0-3.9-.9-5.3-1.3-2-2.6-4.1-3.9-6.1l-4.2-6.6c-.4-.6-1.2-1.3-2.1-1.2h-.3c.6.2 1.1.5 1.7.7-2-1.8-4.6-2.6-7.3-2.3-2.1.2-4 .9-5.9 1.9-.5.3-1 .6-1.4.9s-.9.5-1.3.7c-.1.1-.3.1-.4.2-.1 0-.2.1-.2.1-.4.2.6-.2.2-.1-.4.2-.8.3-1.2.4s-.9.2-1.3.3c-.2.1-.5.1-.7.1-.5.1.6-.1.1 0H48c-.3 0-.6 0-.8-.1.7.1.2 0 .1 0-.2 0-.4-.1-.6-.1-.6-.1-1.2-.3-1.8-.5-.1 0-.6-.3 0 0-.2-.1-.3-.1-.5-.2-.4-.2-.7-.4-1.1-.6-.6-.4-1.2-.8-1.9-1.2-.7-.4-1.5-.8-2.3-1.1-2.2-.9-4.6-1.2-7-.7-1.7.4-3.2 1.2-4.5 2.3-.6.4-1 1-1.4 1.5.9-.4 1.8-.7 2.7-1.1-.1 0-.2-.1-.3-.1-1-.4-2.2.2-2.7 1.1-2.5 3.9-4.9 7.8-7.4 11.6-.4.6-.6 1.2-.8 1.9-.3 1.1-.4 2.4 0 3.5.5 1.2 1.3 2.1 2.4 2.6 1.2.5 2.4.7 3.7.7H73c1.3 0 2.4-1.1 2.4-2.4 0-1-1.1-2.1-2.4-2.1zM61.7 13.1c0 6.3-9.4 6.3-9.4 0s9.4-6.3 9.4 0"/><path class="st0" d="M59.3 13.1v.4c0 .5.1-.6 0-.1 0 .3-.1.5-.2.7.3-.8 0 0-.2.2-.1.1-.1.2-.2.3.4-.6.1-.1 0 0l-.3.3c-.4.3.5-.3.1-.1-.2.1-.4.3-.7.4-.4.2.6-.2.1 0-.1 0-.2.1-.4.1s-.3.1-.4.1c.8-.1.2 0 0 0s-1.1-.1-.3 0c-.3 0-.5-.1-.8-.2-.5-.2.5.2.1 0-.1-.1-.2-.1-.3-.2s-.2-.1-.3-.2c-.3-.2.5.4 0 0-.2-.1-.7-.8-.2-.2-.2-.2-.3-.4-.4-.6-.1-.1-.2-.6 0 .1 0-.1-.1-.2-.1-.4s-.1-.3-.1-.4c-.1-.4 0 .6 0 0v-.8c-.1.8 0 0 .1-.3 0-.2.2-.6-.1.1.1-.1.1-.2.2-.3.1-.1.1-.2.2-.3.3-.5-.3.3 0 0l.5-.5c-.6.5.1 0 .2-.1s.2-.1.3-.2c-.7.3-.3.1-.1.1.1 0 .2-.1.4-.1.6-.2-.4 0 0 0h.8c.5 0-.6-.1-.1 0 .1 0 .3.1.4.1.1 0 .2.1.4.1-.7-.2-.3-.1-.1 0 .1.1.2.1.3.2.2.1.6.5 0 0 .2.2.4.3.5.5.3.4-.3-.5-.1-.1.1.1.1.2.2.3s.1.2.2.3c.2.4-.2-.6 0-.1.1.2.3 1.2.1.4.3.1.3.3.3.5 0 1.3 1.1 2.4 2.4 2.4 1.3 0 2.4-1.1 2.4-2.4 0-3.1-2-5.7-4.9-6.7-1.3-.5-2.9-.4-4.3 0-1.5.5-2.7 1.4-3.7 2.7-1.7 2.3-1.7 5.7-.2 8 1.7 2.5 4.9 3.7 7.9 2.9 3-.8 5.1-3.7 5.1-6.8 0-1.3-1.1-2.4-2.4-2.4-1.2-.1-2.3 1-2.3 2.3zm-16.7 6.1c.1-.4.1-.5 0-.2 0-.1.1-.2.1-.3-.1.2-.1.1.1-.2.3-.2.4-.3.2-.1.1 0 .2-.1.3-.1-.2.1-.2.1.2 0 .4.1.5.1.2 0 .1 0 .2.1.3.1-.2-.1-.1-.1.2.1.2.3.3.4.1.2 0 .1.1.2.1.3-.1-.2-.1-.2 0 .2-.1.4-.1.5 0 .2 0 .1-.1.2-.1.3.1-.2.1-.1-.1.2-.3.2-.4.3-.2.1-.1 0-.2.1-.3.1.2-.1.2-.1-.2 0-.4-.1-.5-.1-.2 0-.1 0-.2-.1-.3-.1.2.1.1.1-.2-.1-.2-.3-.3-.4-.1-.2 0-.1-.1-.2-.1-.3.1.3.1.2 0-.2.1 1.3 1 2.4 2.4 2.4 1.3 0 2.5-1.1 2.4-2.4-.1-2.1-1.6-3.6-3.7-3.7-1-.1-1.9.4-2.6 1.1-.7.7-1 1.7-1.1 2.6-.1 1 .4 1.9 1.1 2.6.7.7 1.7 1 2.6 1.1 1 .1 1.9-.4 2.6-1.1.7-.7 1-1.7 1.1-2.6.1-1.3-1.1-2.4-2.4-2.4-1.4 0-2.3 1.1-2.4 2.4z"/></svg>