<svg id="Layer_1" xmlns="http://www.w3.org/2000/svg" viewBox="0 0 100 100"><style>.st0{fill:#fff}</style><path class="st0" d="M26 89h48c8.3 0 15-6.7 15-15V26c0-8.3-6.7-15-15-15H26c-8.3 0-15 6.7-15 15v48c0 8.3 6.7 15 15 15zm14.4-20h-5.7v5.7h-6V69H23v-6h5.7v-5.7h6V63h5.7v6zM53 17h21c5 0 9 4 9 9v21H53V17zm0 36h30v21c0 5-4 9-9 9H53V53zM17 26c0-5 4-9 9-9h21v30H17V26z"/><path class="st0" d="M23.1 29.7h17.3v6H23.1v-6zM58.7 69H76v6H58.7v-6zm0-9H76v6H58.7v-6zm12.7-35.6l-4 4-4.1-4-4.2 4.3 4 4-4 4 4.2 4.2 4.1-4 4 4 4.2-4.2-4-4 4-4-4.2-4.3z"/></svg>