<svg id="Layer_1" xmlns="http://www.w3.org/2000/svg" viewBox="0 0 100 100"><style>.st0{fill:#fff}</style><path class="st0" d="M50 2.5C23.8 2.5 2.5 23.8 2.5 50S23.8 97.5 50 97.5 97.5 76.2 97.5 50 76.2 2.5 50 2.5zm0 85.3c-7.3 0-14.2-2.1-20-5.8l1.9-8.9c.5-2.2.2-4.5-.7-6.5l-2.9-6.3c-.3-.7-1-1.2-1.8-1.3L16 57.5c-1-.1-1.5-1.3-.8-2.1l1.8-2.2c.5-.6 1.3-.9 2.1-.8l3.9.6c.5.1.9 0 1.4-.1l5.3-1.2c.2 0 .3-.1.5-.2l3.5-1.7c.7-.3 1.2-1 1.3-1.7l1.4-10.5c.1-1.1-.4-2.1-1.4-2.4l-1.8-.7c-.9-.3-1.5-1.1-1.6-2.1 0-1.3.9-2.3 2.1-2.4l2.6-.2c1.2-.1 2.2-1.2 2.1-2.4l-.2-3.2-.3-6.3c0-.9-.6-1.7-1.5-2l-1.4-.5c4.6-2 9.6-3 14.9-3 2.9 0 5.7.3 8.4 1l.3 5.6v.2l-.7 7c0 .2 0 .5.2.7l.8 1.2c.3.5 1.1.6 1.5.2l2.1-1.9c.6-.5 1.4-.2 1.7.5l.1.3c.1.4.5.7.9.7l2.4.1c.1 0 .3 0 .4-.1l2-.8c.8-.3 1.6.4 1.3 1.3L70.2 32c-.1.4-.5.7-.9.7l-2.7.1h-.3l-3.4-1c-.2-.1-.5 0-.7 0l-1.6.7c-.3.1-.6.1-.8 0l-2.1-1c-.3-.1-.6-.1-.9.1l-2.7 1.9c-.3.2-.4.5-.4.8l.4 3.1c.1.4-.2.9-.6 1l-2 .9c-.6.3-.8 1.2-.3 1.6l1.4 1.3c.2.2.6.3.9.3l2.6-.6c.2 0 .4 0 .6.1l1.2.5c.4.2 1.2.9 1.9 1.4.4.4 1.1.3 1.5-.2.2-.2.4-.4.7-.5l2-.2c.2 0 .4-.1.6-.3l.2-.2c.5-.5 1.4-.3 1.6.4l1 2.8c.1.1.1.2.2.3l1.1 1.5c.3.4.3 1-.1 1.4l-2.8 2.6c-.4.4-1 .4-1.4 0L61.7 49c-.1-.1-.2-.1-.3-.2l-3.8-1.6c-.1 0-.2-.1-.3-.1l-5-.5h-.4l-4.2 1.2c-1.3.4-2.4 1.4-2.8 2.7l-1 3.1c-.3 1-.3 2.1.2 3l1.6 3.4c.6 1.3 1.9 2.2 3.4 2.4l3.8.4c.1 0 .3.1.4.1l2.1 1.2c.3.2.5.5.5.8l.3 3.8c.1 1.3.5 2.6 1.1 3.8l1.8 3.4c.1.2.2.3.3.4l3 2.2c.5.4 1.3.3 1.7-.3l1-1.3c.1-.2.2-.3.3-.5l2.2-5.5c0-.1 0-.2.1-.3l.7-7.9c0-.1.1-.2.1-.3l1.6-3.3c.2-.4.6-.6 1-.6l5.4.7c.3 0 .6-.1.9-.3l1-1.1c.3-.4.4-.9.1-1.3l-2.6-3.4c-.4-.6-.1-1.4.6-1.6l1-.2c.2 0 1.7-.1 2.2-.2h.2l2.4.4c.7.1 1.1.6 1 1.1l-.6 6.9c0 .2 0 .3.1.5l1.9 4.9C78.9 78.4 65.5 87.8 50 87.8z"/></svg>