<?xml version="1.0" standalone="no"?>
<!DOCTYPE svg PUBLIC "-//W3C//DTD SVG 20010904//EN"
 "http://www.w3.org/TR/2001/REC-SVG-20010904/DTD/svg10.dtd">
<svg version="1.0" xmlns="http://www.w3.org/2000/svg"
 width="480.000000pt" height="308.000000pt" viewBox="0 0 480.000000 308.000000"
 preserveAspectRatio="xMidYMid meet">
<metadata>
Created by potrace 1.15, written by Peter Selinger 2001-2017
</metadata>
<g transform="translate(0.000000,308.000000) scale(0.100000,-0.100000)"
fill="#000000" stroke="none">
<path d="M2238 2847 c-166 -57 -292 -197 -333 -368 -8 -35 -15 -108 -15 -161
l0 -98 -54 0 c-95 0 -86 52 -86 -509 0 -474 1 -497 20 -528 39 -65 21 -63 635
-63 614 0 596 -2 635 63 19 31 20 54 20 528 0 561 9 509 -86 509 l-54 0 0 98
c0 213 -76 368 -231 471 -87 58 -169 81 -288 81 -73 0 -112 -6 -163 -23z m285
-229 c59 -26 130 -102 151 -165 10 -29 16 -81 16 -140 l0 -93 -285 0 -285 0 0
93 c0 114 17 170 72 232 87 99 207 126 331 73z m-76 -709 c96 -36 125 -143 61
-224 -20 -26 -21 -31 -10 -131 6 -57 9 -110 6 -119 -9 -22 -189 -22 -198 0 -3
9 0 62 6 119 11 100 10 105 -10 131 -62 79 -38 181 53 221 37 16 56 17 92 3z"/>
<path d="M0 350 l0 -350 2400 0 2400 0 0 350 0 350 -2400 0 -2400 0 0 -350z
m3773 81 c42 -43 77 -84 77 -91 0 -17 -150 -170 -167 -170 -8 0 -16 7 -20 16
-4 11 16 38 63 85 l68 69 -68 69 c-47 47 -67 74 -63 85 11 29 33 17 110 -63z
m-2721 -8 c10 -9 18 -20 18 -25 0 -11 -38 -10 -45 2 -8 13 -42 13 -50 0 -4 -6
11 -18 32 -26 73 -30 89 -58 53 -94 -37 -37 -130 -18 -130 27 0 18 30 16 45
-3 9 -12 20 -15 39 -10 37 9 28 27 -22 44 -53 17 -70 44 -47 78 19 29 78 33
107 7z m238 -6 c0 -20 4 -23 28 -19 39 5 62 -20 62 -68 0 -52 -19 -69 -80 -68
l-50 0 0 89 c0 82 1 89 20 89 14 0 20 -7 20 -23z m600 0 c0 -20 4 -23 28 -19
39 5 62 -20 62 -68 0 -52 -19 -69 -80 -68 l-50 0 0 89 c0 82 1 89 20 89 14 0
20 -7 20 -23z m720 -41 c0 -71 17 -99 48 -79 13 7 18 28 20 77 3 59 5 66 24
66 19 0 20 -5 16 -76 -4 -86 -17 -104 -75 -104 -55 0 -73 28 -73 110 0 63 2
70 20 70 18 0 20 -7 20 -64z m-150 4 c43 -43 11 -120 -49 -120 -32 0 -71 39
-71 70 0 10 9 29 21 44 25 32 70 35 99 6z m625 0 c40 -44 10 -120 -47 -120
-37 0 -68 32 -68 70 0 61 76 93 115 50z"/>
</g>
</svg>
