<?xml version="1.0" encoding="utf-8"?>
<!-- Generator: Adobe Illustrator 21.0.2, SVG Export Plug-In . SVG Version: 6.00 Build 0)  -->
<svg version="1.1" id="Layer_1" xmlns="http://www.w3.org/2000/svg" xmlns:xlink="http://www.w3.org/1999/xlink" x="0px" y="0px"
	 viewBox="0 0 100 100" style="enable-background:new 0 0 100 100;" xml:space="preserve">
<style type="text/css">
	.st0{fill:#FFFFFF;}
</style>
<path class="st0" d="M86.8,16c-5.2-5.1-12.1-8-19.4-8c-6.3,0-12.5,2.1-17.4,6.1c-11.9-9.6-29.3-7.8-38.9,4.1C4,27,3,39.4,8.6,49.2
	H22l13.9-24.1L45,52.7l10.2-18.1l8.6,14.7H72c1.7,0,3,1.3,3,3s-1.3,3-3,3H60.4l-5.1-8.6L43.5,67.4l-9.2-27.7l-8.9,15.5H13.2L50,92
	l37-37C97.7,44.2,97.6,26.7,86.8,16L86.8,16z"/>
</svg>
