<?xml version="1.0" encoding="utf-8"?>
<!-- Generator: Adobe Illustrator 21.0.2, SVG Export Plug-In . SVG Version: 6.00 Build 0)  -->
<svg version="1.1" id="Layer_1" xmlns="http://www.w3.org/2000/svg" xmlns:xlink="http://www.w3.org/1999/xlink" x="0px" y="0px"
	 viewBox="0 0 100 100" style="enable-background:new 0 0 100 100;" xml:space="preserve">
<style type="text/css">
	.st0{fill:#FFFFFF;}
</style>
<g>
	<path class="st0" d="M26,89h48c8.3,0,15-6.7,15-15V26c0-8.3-6.7-15-15-15H26c-8.3,0-15,6.7-15,15v48C11,82.3,17.7,89,26,89z
		 M40.4,69h-5.7v5.7h-6V69H23v-6h5.7v-5.7h6V63h5.7V69z M53,17h21c5,0,9,4,9,9v21H53V17z M53,53h30v21c0,5-4,9-9,9H53V53z M17,26
		c0-5,4-9,9-9h21v30H17V26z"/>
	<path class="st0" d="M23.1,29.7h17.3v6H23.1V29.7z"/>
	<path class="st0" d="M58.7,69H76v6H58.7V69z"/>
	<path class="st0" d="M58.7,60H76v6H58.7V60z"/>
	<path class="st0" d="M71.4,24.4l-4,4l-4.1-4l-4.2,4.3l4,4l-4,4l4.2,4.2l4.1-4l4,4l4.2-4.2l-4-4l4-4L71.4,24.4z"/>
</g>
</svg>
