<?xml version="1.0" encoding="utf-8"?>
<!-- Generator: Adobe Illustrator 21.0.2, SVG Export Plug-In . SVG Version: 6.00 Build 0)  -->
<svg version="1.1" id="Layer_1" xmlns="http://www.w3.org/2000/svg" xmlns:xlink="http://www.w3.org/1999/xlink" x="0px" y="0px"
	 viewBox="0 0 100 100" style="enable-background:new 0 0 100 100;" xml:space="preserve">
<style type="text/css">
	.st0{fill:#FFFFFF;}
</style>
<path class="st0" d="M50,2.5C23.8,2.5,2.5,23.8,2.5,50S23.8,97.5,50,97.5S97.5,76.2,97.5,50S76.2,2.5,50,2.5z M50,87.8
	c-7.3,0-14.2-2.1-20-5.8l1.9-8.9c0.5-2.2,0.2-4.5-0.7-6.5l-2.9-6.3c-0.3-0.7-1-1.2-1.8-1.3L16,57.5c-1-0.1-1.5-1.3-0.8-2.1l1.8-2.2
	c0.5-0.6,1.3-0.9,2.1-0.8L23,53c0.5,0.1,0.9,0,1.4-0.1l5.3-1.2c0.2,0,0.3-0.1,0.5-0.2l3.5-1.7c0.7-0.3,1.2-1,1.3-1.7l1.4-10.5
	c0.1-1.1-0.4-2.1-1.4-2.4l-1.8-0.7c-0.9-0.3-1.5-1.1-1.6-2.1c0-1.3,0.9-2.3,2.1-2.4l2.6-0.2c1.2-0.1,2.2-1.2,2.1-2.4l-0.2-3.2
	l-0.3-6.3c0-0.9-0.6-1.7-1.5-2L35,15.4c4.6-2,9.6-3,14.9-3c2.9,0,5.7,0.3,8.4,1l0.3,5.6v0.2l-0.7,7c0,0.2,0,0.5,0.2,0.7l0.8,1.2
	c0.3,0.5,1.1,0.6,1.5,0.2l2.1-1.9c0.6-0.5,1.4-0.2,1.7,0.5l0.1,0.3c0.1,0.4,0.5,0.7,0.9,0.7l2.4,0.1c0.1,0,0.3,0,0.4-0.1l2-0.8
	c0.8-0.3,1.6,0.4,1.3,1.3L70.2,32c-0.1,0.4-0.5,0.7-0.9,0.7l-2.7,0.1h-0.3l-3.4-1c-0.2-0.1-0.5,0-0.7,0l-1.6,0.7
	c-0.3,0.1-0.6,0.1-0.8,0l-2.1-1c-0.3-0.1-0.6-0.1-0.9,0.1l-2.7,1.9c-0.3,0.2-0.4,0.5-0.4,0.8l0.4,3.1c0.1,0.4-0.2,0.9-0.6,1l-2,0.9
	c-0.6,0.3-0.8,1.2-0.3,1.6l1.4,1.3c0.2,0.2,0.6,0.3,0.9,0.3l2.6-0.6c0.2,0,0.4,0,0.6,0.1l1.2,0.5c0.4,0.2,1.2,0.9,1.9,1.4
	c0.4,0.4,1.1,0.3,1.5-0.2c0.2-0.2,0.4-0.4,0.7-0.5l2-0.2c0.2,0,0.4-0.1,0.6-0.3l0.2-0.2c0.5-0.5,1.4-0.3,1.6,0.4l1,2.8
	c0.1,0.1,0.1,0.2,0.2,0.3l1.1,1.5c0.3,0.4,0.3,1-0.1,1.4l-2.8,2.6c-0.4,0.4-1,0.4-1.4,0L61.7,49c-0.1-0.1-0.2-0.1-0.3-0.2l-3.8-1.6
	c-0.1,0-0.2-0.1-0.3-0.1l-5-0.5h-0.4l-4.2,1.2c-1.3,0.4-2.4,1.4-2.8,2.7l-1,3.1c-0.3,1-0.3,2.1,0.2,3l1.6,3.4
	c0.6,1.3,1.9,2.2,3.4,2.4l3.8,0.4c0.1,0,0.3,0.1,0.4,0.1l2.1,1.2c0.3,0.2,0.5,0.5,0.5,0.8l0.3,3.8c0.1,1.3,0.5,2.6,1.1,3.8l1.8,3.4
	c0.1,0.2,0.2,0.3,0.3,0.4l3,2.2c0.5,0.4,1.3,0.3,1.7-0.3l1-1.3c0.1-0.2,0.2-0.3,0.3-0.5l2.2-5.5c0-0.1,0-0.2,0.1-0.3l0.7-7.9
	c0-0.1,0.1-0.2,0.1-0.3l1.6-3.3c0.2-0.4,0.6-0.6,1-0.6l5.4,0.7c0.3,0,0.6-0.1,0.9-0.3l1-1.1c0.3-0.4,0.4-0.9,0.1-1.3l-2.6-3.4
	c-0.4-0.6-0.1-1.4,0.6-1.6l1-0.2c0.2,0,1.7-0.1,2.2-0.2h0.2l2.4,0.4c0.7,0.1,1.1,0.6,1,1.1l-0.6,6.9c0,0.2,0,0.3,0.1,0.5l1.9,4.9
	C78.9,78.4,65.5,87.8,50,87.8L50,87.8z"/>
</svg>
