<?xml version="1.0" encoding="utf-8"?>
<!-- Generator: Adobe Illustrator 21.0.2, SVG Export Plug-In . SVG Version: 6.00 Build 0)  -->
<svg version="1.1" id="Layer_1" xmlns="http://www.w3.org/2000/svg" xmlns:xlink="http://www.w3.org/1999/xlink" x="0px" y="0px"
	 viewBox="0 0 100 100" style="enable-background:new 0 0 100 100;" xml:space="preserve">
<style type="text/css">
	.st0{fill:#FFFFFF;}
</style>
<g>
	<path class="st0" d="M73,85.5h-8.5H46.3H29.2H25c-0.9,0-1.8,0-2.6-0.1c0.3,0,0.5,0.1,0.8,0.1c-0.4-0.1-0.8-0.2-1.2-0.3
		c0.2,0.1,0.5,0.2,0.7,0.3c-0.2-0.1-0.5-0.2-0.7-0.4c0.2,0.2,0.4,0.3,0.6,0.5c-0.1-0.1-0.3-0.3-0.4-0.4c0.2,0.2,0.3,0.4,0.5,0.6
		c-0.1-0.1-0.2-0.3-0.2-0.4c0.1,0.2,0.2,0.5,0.3,0.7c-0.1-0.2-0.1-0.4-0.2-0.6c0,0.3,0.1,0.5,0.1,0.8c0-0.3,0-0.6,0-1
		c0,0.3-0.1,0.5-0.1,0.8c0.1-0.6,0.3-1.1,0.5-1.7c-0.1,0.2-0.2,0.5-0.3,0.7c0.3-0.6,0.7-1.1,1.1-1.7c0.8-1.2,1.6-2.4,2.3-3.6
		c1.4-2.1,2.7-4.3,4.1-6.4c2.2-3.4,4.4-6.8,6.5-10.2c1.6-2.5,3.2-5,4.8-7.5c0.5-0.8,1-1.5,1.4-2.3c0.4-0.7,0.8-1.3,0.8-2.2V36.9
		v-9.1l-3.1,3.1H55h0.9c-1-1-2.1-2.1-3.1-3.1v13.6v8.2v1.9c0,0.9,0.3,1.5,0.7,2.1c2.9,4.6,5.8,9.1,8.7,13.7c1.8,2.9,3.7,5.8,5.5,8.6
		c1.3,2.1,2.7,4.2,4,6.2c0.5,0.8,1,1.5,1.4,2.3c0.3,0.4,0.6,0.9,0.8,1.3c-0.1-0.2-0.2-0.5-0.3-0.7c0.2,0.5,0.3,0.9,0.4,1.4
		c0-0.3-0.1-0.5-0.1-0.8c0,0.3,0,0.6,0,0.9c0-0.3,0.1-0.5,0.1-0.8c0,0.2-0.1,0.4-0.2,0.6c0.1-0.2,0.2-0.5,0.3-0.7
		C74,85.7,74,85.9,73.9,86c0.2-0.2,0.3-0.4,0.5-0.6c-0.1,0.2-0.3,0.3-0.4,0.4c0.2-0.2,0.4-0.3,0.6-0.5c-0.2,0.1-0.4,0.3-0.6,0.4
		c0.2-0.1,0.5-0.2,0.7-0.3c-0.4,0.2-0.9,0.3-1.3,0.4c0.3,0,0.5-0.1,0.8-0.1C73.9,85.5,73.4,85.5,73,85.5c-1.7,0-3.1,1.4-3.1,3.1
		s1.4,3.1,3.1,3.1c1.5,0,2.8-0.3,4.2-0.9c0.5-0.2,1-0.6,1.4-1c0.7-0.6,1-1.3,1.3-2.1c0.5-1.2,0.3-2.7-0.1-3.9
		c-0.2-0.7-0.5-1.3-0.8-1.9c-1.3-2-2.6-4.1-3.9-6.1c-1.9-3.1-3.9-6.1-5.8-9.2c-3.1-4.9-6.2-9.8-9.3-14.6c-0.4-0.7-0.9-1.4-1.3-2
		c0.1,0.5,0.3,1,0.4,1.6V37.9V27.8c0-1.7-1.4-3.1-3.1-3.1H41.6h-0.9c-1.7,0-3.1,1.4-3.1,3.1v13.6v10.2c0.1-0.5,0.3-1,0.4-1.6
		c-2.4,3.8-4.8,7.6-7.2,11.4c-2,3.2-4.1,6.4-6.1,9.6c-1.5,2.4-3,4.7-4.5,7.1c-0.7,1.1-1.4,2.2-2.1,3.3c-0.6,1-1.2,2-1.4,3.2
		c-0.3,1.5-0.2,3,0.5,4.4c0.7,1.3,2,2.1,3.3,2.5c1,0.4,2.2,0.4,3.3,0.4h3.6h16h18.7h10.6H73c1.7,0,3.1-1.4,3.1-3.1
		C76.1,86.9,74.7,85.5,73,85.5L73,85.5z"/>
	<path class="st0" d="M37.1,30.9H51h8.5c1.7,0,3.1-1.4,3.1-3.1s-1.4-3.1-3.1-3.1H45.6h-8.5c-1.7,0-3.1,1.4-3.1,3.1
		S35.4,30.9,37.1,30.9z"/>
	<path class="st0" d="M50.9,39.7h4.7c1.7,0,3.1-1.4,3.1-3.1c0-1.7-1.4-3.1-3.1-3.1h-4.7c-1.7,0-3.1,1.4-3.1,3.1
		C47.8,38.3,49.2,39.7,50.9,39.7z"/>
	<path class="st0" d="M50.9,48.2h4.7c1.7,0,3.1-1.4,3.1-3.1c0-1.7-1.4-3.1-3.1-3.1h-4.7c-1.7,0-3.1,1.4-3.1,3.1
		C47.8,46.8,49.2,48.2,50.9,48.2z"/>
	<path class="st0" d="M73,88.7H23.6c-3.5,0-5-1.6-3.4-5l7.5-11.8L28,72c0,0,4.7-6.2,12.9-0.6s15.5,0,15.5,0s6.7-4.7,11.4-0.6h0.3
		l8.2,12.9C78.1,87.1,76.5,88.7,73,88.7L73,88.7z"/>
	<path class="st0" d="M73,86.2h-8.5H46.3H29.2h-4.7h-0.8c-0.1,0-0.3,0-0.4,0c-0.2,0-0.5,0-0.8-0.1c0.9,0.1,0,0-0.2-0.1
		c-0.1,0-0.2-0.1-0.3-0.1c-0.4-0.1,0.6,0.3,0.2,0.1c-0.2-0.1-0.3-0.2-0.5-0.3c0.7,0.5,0.2,0.2,0.1,0c0.5,0.6,0.3,0.4,0.2,0.2
		c-0.3-0.4,0.2,0.5,0.1,0.2c0-0.1,0-0.2-0.1-0.2c-0.1-0.4,0.1,0.7,0,0.3c0-0.2,0-0.4,0-0.6c0-0.4-0.1,0.7,0,0.2
		c0-0.1,0.1-0.2,0.1-0.3c0.1-0.3,0.2-0.6,0.3-0.9c0.2-0.4-0.2,0.4,0,0.1c0.1-0.1,0.1-0.2,0.2-0.3c0.6-0.9,1.2-1.9,1.8-2.8
		c1.6-2.5,3.2-5,4.8-7.5c0.2-0.4,0.5-0.8,0.8-1.2c-0.9,0.4-1.8,0.7-2.7,1.1c0.1,0,0.2,0.1,0.3,0.1c1.1,0.4,2.1-0.3,2.7-1.1
		c-0.8,1-0.2,0.3,0,0.1c0.1-0.1,0.3-0.3,0.4-0.4s0.2-0.2,0.3-0.2c0.1-0.1,0.4-0.3-0.3,0.2c0.1-0.1,0.1-0.1,0.2-0.2
		c0.2-0.2,0.5-0.3,0.8-0.5c0.1-0.1,0.3-0.2,0.4-0.2s0.2-0.1,0.2-0.1c0.5-0.2-0.5,0.2-0.2,0.1s0.7-0.2,1.1-0.3c0.2,0,0.4-0.1,0.6-0.1
		c0.2,0,0.6-0.1-0.2,0c0.1,0,0.3,0,0.4,0c0.5,0,0.9,0,1.4,0c0.2,0,0.6,0.1-0.2,0c0.1,0,0.2,0,0.4,0.1c0.3,0.1,0.6,0.1,0.9,0.2
		c0.3,0.1,0.5,0.2,0.8,0.3c0.1,0.1,0.3,0.1,0.4,0.2c-0.6-0.3-0.1-0.1,0,0c0.7,0.3,1.3,0.7,1.9,1.1c1.4,0.9,2.8,1.7,4.3,2.2
		c1.3,0.5,2.8,0.7,4.2,0.8c2.1,0.1,4.4-0.3,6.4-1.1c1.1-0.4,2.3-1,3.3-1.7c0.6-0.4,1.2-0.8,1.9-1.1c0.2-0.1,0.3-0.2,0.5-0.2
		c-0.8,0.4-0.1,0.1,0.1,0c0.4-0.2,0.9-0.3,1.4-0.4c0.2-0.1,0.4-0.1,0.7-0.2c0.1,0,0.2,0,0.3-0.1c0.5-0.1-0.6,0.1-0.2,0
		c0.5-0.1,1-0.1,1.6,0c0.1,0,0.2,0,0.2,0c0.5,0-0.6-0.1-0.1,0c0.2,0,0.4,0.1,0.6,0.1s0.4,0.1,0.6,0.2s0.2,0.1-0.2-0.1
		c0.1,0.1,0.2,0.1,0.4,0.2c0.2,0.1,0.4,0.2,0.6,0.3c0.1,0.1,0.2,0.1,0.2,0.2c0.4,0.3-0.4-0.4,0,0c0.6,0.5,1.3,0.9,2.1,0.8
		c-0.7-0.4-1.4-0.8-2.1-1.2c2.6,4,5.1,8.1,7.7,12.1c0.2,0.2,0.3,0.5,0.5,0.7c0.1,0.1,0.2,0.3,0.2,0.5c-0.3-0.7,0,0.1,0.1,0.3
		c0,0.1,0.1,0.2,0.1,0.3c0.1,0.6,0-0.5,0-0.1c0,0.2,0,0.4,0,0.6c0.1-0.8,0.1-0.5,0-0.3s-0.3,0.6,0.1-0.2c0,0.1-0.1,0.1-0.1,0.2
		c-0.2,0.3,0.4-0.5,0.2-0.2C75.1,86,75.1,86,75,86.1c-0.3,0.2,0.6-0.4,0.1-0.1c-0.1,0-0.2,0.1-0.2,0.1c-0.4,0.2,0.6-0.2,0.2-0.1
		c-0.2,0.1-0.5,0.1-0.7,0.2c-0.1,0-0.2,0-0.3,0.1c0.8-0.1,0.3,0,0.2,0C73.6,86.2,73.3,86.2,73,86.2c-1.3,0-2.4,1.1-2.4,2.4
		S71.7,91,73,91s2.6-0.2,3.8-0.8c1.2-0.5,1.9-1.5,2.4-2.7c0.7-1.6,0-3.9-0.9-5.3c-1.3-2-2.6-4.1-3.9-6.1c-1.4-2.2-2.8-4.4-4.2-6.6
		c-0.4-0.6-1.2-1.3-2.1-1.2c-0.1,0-0.2,0-0.3,0c0.6,0.2,1.1,0.5,1.7,0.7c-2-1.8-4.6-2.6-7.3-2.3c-2.1,0.2-4,0.9-5.9,1.9
		c-0.5,0.3-1,0.6-1.4,0.9S54,70,53.6,70.2c-0.1,0.1-0.3,0.1-0.4,0.2c-0.1,0-0.2,0.1-0.2,0.1c-0.4,0.2,0.6-0.2,0.2-0.1
		c-0.4,0.2-0.8,0.3-1.2,0.4s-0.9,0.2-1.3,0.3c-0.2,0.1-0.5,0.1-0.7,0.1c-0.5,0.1,0.6-0.1,0.1,0c-0.2,0-0.3,0-0.5,0
		c-0.5,0-1.1,0-1.6,0c-0.3,0-0.6,0-0.8-0.1c0.7,0.1,0.2,0,0.1,0c-0.2,0-0.4-0.1-0.6-0.1c-0.6-0.1-1.2-0.3-1.8-0.5
		c-0.1,0-0.6-0.3,0,0c-0.2-0.1-0.3-0.1-0.5-0.2c-0.4-0.2-0.7-0.4-1.1-0.6c-0.6-0.4-1.2-0.8-1.9-1.2c-0.7-0.4-1.5-0.8-2.3-1.1
		c-2.2-0.9-4.6-1.2-7-0.7c-1.7,0.4-3.2,1.2-4.5,2.3c-0.6,0.4-1,1-1.4,1.5c0.9-0.4,1.8-0.7,2.7-1.1c-0.1,0-0.2-0.1-0.3-0.1
		c-1-0.4-2.2,0.2-2.7,1.1c-2.5,3.9-4.9,7.8-7.4,11.6c-0.4,0.6-0.6,1.2-0.8,1.9c-0.3,1.1-0.4,2.4,0,3.5c0.5,1.2,1.3,2.1,2.4,2.6
		c1.2,0.5,2.4,0.7,3.7,0.7H26h14.8h19h12.4H73c1.3,0,2.4-1.1,2.4-2.4C75.4,87.3,74.3,86.2,73,86.2L73,86.2z"/>
	<path class="st0" d="M61.7,13.1c0,6.3-9.4,6.3-9.4,0C52.3,6.8,61.7,6.8,61.7,13.1"/>
	<path class="st0" d="M59.3,13.1c0,0.1,0,0.3,0,0.4c0,0.5,0.1-0.6,0-0.1c0,0.3-0.1,0.5-0.2,0.7c0.3-0.8,0,0-0.2,0.2
		c-0.1,0.1-0.1,0.2-0.2,0.3c0.4-0.6,0.1-0.1,0,0s-0.2,0.2-0.3,0.3c-0.4,0.3,0.5-0.3,0.1-0.1c-0.2,0.1-0.4,0.3-0.7,0.4
		c-0.4,0.2,0.6-0.2,0.1,0c-0.1,0-0.2,0.1-0.4,0.1s-0.3,0.1-0.4,0.1c0.8-0.1,0.2,0,0,0s-1.1-0.1-0.3,0c-0.3,0-0.5-0.1-0.8-0.2
		c-0.5-0.2,0.5,0.2,0.1,0c-0.1-0.1-0.2-0.1-0.3-0.2s-0.2-0.1-0.3-0.2c-0.3-0.2,0.5,0.4,0,0c-0.2-0.1-0.7-0.8-0.2-0.2
		c-0.2-0.2-0.3-0.4-0.4-0.6c-0.1-0.1-0.2-0.6,0,0.1c0-0.1-0.1-0.2-0.1-0.4s-0.1-0.3-0.1-0.4c-0.1-0.4,0,0.6,0,0c0-0.3,0-0.5,0-0.8
		c-0.1,0.8,0,0,0.1-0.3c0-0.2,0.2-0.6-0.1,0.1c0.1-0.1,0.1-0.2,0.2-0.3c0.1-0.1,0.1-0.2,0.2-0.3c0.3-0.5-0.3,0.3,0,0
		c0.2-0.2,0.4-0.4,0.5-0.5c-0.6,0.5,0.1,0,0.2-0.1c0.1-0.1,0.2-0.1,0.3-0.2C55.4,11.2,55.8,11,56,11c0.1,0,0.2-0.1,0.4-0.1
		c0.6-0.2-0.4,0,0,0c0.3,0,0.5,0,0.8,0c0.5,0-0.6-0.1-0.1,0c0.1,0,0.3,0.1,0.4,0.1c0.1,0,0.2,0.1,0.4,0.1c-0.7-0.2-0.3-0.1-0.1,0
		c0.1,0.1,0.2,0.1,0.3,0.2c0.2,0.1,0.6,0.5,0,0c0.2,0.2,0.4,0.3,0.5,0.5c0.3,0.4-0.3-0.5-0.1-0.1c0.1,0.1,0.1,0.2,0.2,0.3
		s0.1,0.2,0.2,0.3c0.2,0.4-0.2-0.6,0-0.1c0.1,0.2,0.3,1.2,0.1,0.4C59.3,12.7,59.3,12.9,59.3,13.1c0,1.3,1.1,2.4,2.4,2.4
		c1.3,0,2.4-1.1,2.4-2.4c0-3.1-2-5.7-4.9-6.7c-1.3-0.5-2.9-0.4-4.3,0c-1.5,0.5-2.7,1.4-3.7,2.7c-1.7,2.3-1.7,5.7-0.2,8
		c1.7,2.5,4.9,3.7,7.9,2.9c3-0.8,5.1-3.7,5.1-6.8c0-1.3-1.1-2.4-2.4-2.4C60.4,10.7,59.3,11.8,59.3,13.1L59.3,13.1z"/>
	<path class="st0" d="M42.6,19.2c0.1-0.4,0.1-0.5,0-0.2c0-0.1,0.1-0.2,0.1-0.3c-0.1,0.2-0.1,0.1,0.1-0.2c0.3-0.2,0.4-0.3,0.2-0.1
		c0.1,0,0.2-0.1,0.3-0.1c-0.2,0.1-0.2,0.1,0.2,0c0.4,0.1,0.5,0.1,0.2,0c0.1,0,0.2,0.1,0.3,0.1c-0.2-0.1-0.1-0.1,0.2,0.1
		c0.2,0.3,0.3,0.4,0.1,0.2c0,0.1,0.1,0.2,0.1,0.3c-0.1-0.2-0.1-0.2,0,0.2c-0.1,0.4-0.1,0.5,0,0.2c0,0.1-0.1,0.2-0.1,0.3
		c0.1-0.2,0.1-0.1-0.1,0.2c-0.3,0.2-0.4,0.3-0.2,0.1c-0.1,0-0.2,0.1-0.3,0.1c0.2-0.1,0.2-0.1-0.2,0c-0.4-0.1-0.5-0.1-0.2,0
		c-0.1,0-0.2-0.1-0.3-0.1c0.2,0.1,0.1,0.1-0.2-0.1c-0.2-0.3-0.3-0.4-0.1-0.2c0-0.1-0.1-0.2-0.1-0.3C42.7,19.7,42.7,19.6,42.6,19.2
		c0.1,1.3,1,2.4,2.4,2.4c1.3,0,2.5-1.1,2.4-2.4c-0.1-2.1-1.6-3.6-3.7-3.7c-1-0.1-1.9,0.4-2.6,1.1c-0.7,0.7-1,1.7-1.1,2.6
		c-0.1,1,0.4,1.9,1.1,2.6c0.7,0.7,1.7,1,2.6,1.1c1,0.1,1.9-0.4,2.6-1.1c0.7-0.7,1-1.7,1.1-2.6c0.1-1.3-1.1-2.4-2.4-2.4
		C43.6,16.8,42.7,17.9,42.6,19.2z"/>
</g>
</svg>
